<svg fill="none" viewBox="0 0 77 42" xmlns="http://www.w3.org/2000/svg" xmlns:xlink="http://www.w3.org/1999/xlink"><clipPath id="a"><path d="m0 0h76.892v42h-76.892z"/></clipPath><mask id="b" height="32" maskUnits="userSpaceOnUse" width="32" x="44" y="9"><path d="m45.754 18.374c-3.6455 7.8302-.2662 17.136 7.5496 20.786 7.8147 3.65 17.104.2607 20.75-7.5695 3.6445-7.8302.2662-17.135-7.5485-20.785-2.1343-.99645-4.3768-1.4682-6.5863-1.4682-5.8803 0-11.514 3.3451-14.165 9.0377" fill="#fff"/></mask><mask id="c" height="42" maskUnits="userSpaceOnUse" width="77" x="0" y="0"><path d="m76.892 0h-76.892v42h76.892z" fill="#fff"/></mask><mask id="d" height="32" maskUnits="userSpaceOnUse" width="32" x="44" y="9"><path d="m45.754 18.374c-3.6456 7.8302-.2663 17.135 7.5484 20.785 7.8159 3.65 17.104.2607 20.75-7.5695 3.6456-7.8302.2663-17.135-7.5485-20.785-2.1332-.99645-4.3779-1.4682-6.5862-1.4682-5.8815 0-11.513 3.3451-14.164 9.0377z" fill="#fff"/></mask><mask id="e" height="42" maskUnits="userSpaceOnUse" width="77" x="0" y="0"><path d="m76.892 0h-76.892v42h76.892z" fill="#fff"/></mask><g clip-path="url(#a)"><g fill="#231f1f"><path d="m73.169 16.729c.5491-3.8013-1.4063-7.6689-5.0584-9.3746-3.6544-1.7068-7.8711-.72138-10.425 2.1431-5.0375.73023-9.6198 3.9084-11.933 8.8752-3.6455 7.8302-.2662 17.136 7.5496 20.786 7.8147 3.65 17.104.2608 20.75-7.5694 2.3121-4.9668 1.7974-10.527-.8827-14.861z"/><path d="m64.375 4.0532c.6673.31153 1.4737-.00884 1.804-.71696.3292-.70812.0553-1.5333-.6109-1.8449-.6661-.31042-1.4737.00995-1.8029.71696-.3303.70812-.0552 1.5344.6098 1.8449z"/><path d="m72.959 8.0634c.6673.31153 1.4748-.00883 1.804-.71695s.0563-1.5333-.612-1.8449c-.6662-.31153-1.4737.00994-1.8029.71696-.3292.70812-.0563 1.5333.6098 1.8449"/></g><path d="m15.286 34.56c-2.4657 0-3.2291-.823-3.2291-3.2931v-5.6749c0-2.1763-.7335-3.1462-2.6126-3.1462-1.6151 0-2.4956 1.0881-2.4956 3.0578v9.0553h-1.8791c-2.3773 0-3.6986-.9412-3.6986-3.2931v-5.6749c0-4.6453 3.0821-7.6745 8.2202-7.6745 5.7246 0 8.0434 3.0281 8.0434 7.8214v8.8211h-2.3486z" fill="#5d3ebc"/><path d="m26.206 34.56c-1.6736 0-2.965-1.1466-2.965-3.0876v-11.644l-1.8493.5877c-.4109.1171-.8219.1768-1.2041.1768-1.1743 0-2.0846-.559-2.2603-1.5289l-.3524-1.941 5.3137-2.2348c.8805-.3823 1.9962-.6176 3.2589-.6176s2.6712.9412 2.6712 2.5287v17.758h-2.6127v.0022z" fill="#5d3ebc"/><path d="m38.975 34.56c-1.6736 0-2.965-1.1466-2.965-3.0876v-11.644l-1.8493.5877c-.411.1171-.8219.1768-1.2042.1768-1.1743 0-2.0846-.559-2.2602-1.5289l-.3524-1.941 5.3137-2.2348c.8804-.3823 1.9962-.6176 3.2589-.6176 1.2626 0 2.6711.9412 2.6711 2.5287v17.758h-2.6126v.0022z" fill="#5d3ebc"/><path d="m73.169 16.728c.5491-3.8002-1.4063-7.6678-5.0584-9.3735-3.6533-1.7068-7.8689-.72027-10.423 2.1431-5.0375.73024-9.6209 3.9084-11.934 8.8752-3.6455 7.8302-.2662 17.136 7.5496 20.786 7.8147 3.65 17.104.2608 20.75-7.5694 2.3122-4.9668 1.7974-10.528-.8838-14.862z" fill="#fff"/><path d="m72.423 19.231c-2.0835 4.474-7.3905 6.4106-11.856 4.3249-4.4663-2.0857-6.3974-7.4038-4.315-11.877 2.0835-4.4752 7.3916-6.4107 11.858-4.325 4.4652 2.0846 6.3952 7.4016 4.3117 11.877" fill="#231f1f"/><path d="m74.052 31.589c-3.6456 7.8302-12.935 11.22-20.75 7.5695s-11.194-12.955-7.5496-20.786c3.6455-7.8302 12.935-11.218 20.751-7.5684 7.8147 3.6499 11.194 12.955 7.5485 20.785z" fill="#5d3ebc"/><g mask="url(#b)"><g fill="#ffd10d" mask="url(#c)"><path d="m68.631 15.592c-.9213 1.9796-3.2699 2.8358-5.2463 1.9122-1.9763-.9224-2.8313-3.2754-1.91-5.254.9213-1.9796 3.2699-2.8358 5.2463-1.9122 1.9763.9224 2.8313 3.2754 1.91 5.254z"/><path d="m56.835 24.799c-.6948 1.4935-2.4679 2.1398-3.9593 1.4427-1.4913-.696-2.1365-2.4712-1.4405-3.9648.6949-1.4936 2.4679-2.1398 3.9593-1.4428 1.4913.696 2.1365 2.4713 1.4405 3.9649z"/><path d="m54.818 15.677c-.4319.928-1.5333 1.329-2.4591.896-.9257-.4331-1.3267-1.5356-.8948-2.4636.432-.9279 1.5334-1.3289 2.4591-.897.9258.4331 1.3268 1.5356.8948 2.4635"/><path d="m51.139 30.962c-.4319.9279-1.5333 1.3289-2.4591.897-.9257-.4331-1.3267-1.5356-.8948-2.4635.432-.928 1.5334-1.329 2.4591-.8959.9258.433 1.3268 1.5355.8948 2.4635"/><path d="m62.02 27.22c-.6948 1.4935-.0497 3.2688 1.4406 3.9648 1.4913.6959 3.2633.0508 3.9593-1.4428.6948-1.4936.0497-3.2688-1.4406-3.9648-1.4913-.696-3.2633-.0497-3.9593 1.4428z"/><path d="m70.294 22.904c-.432.928-.031 2.0305.8948 2.4635.9257.4331 2.0271.031 2.4591-.8959.4319-.9279.0309-2.0304-.8948-2.4635-.9258-.433-2.0272-.0309-2.4591.8959z"/><path d="m60.968 35.552c-.4319.928-.0309 2.0305.8948 2.4635.9258.4331 2.0272.031 2.4591-.897.4319-.9279.0309-2.0304-.8948-2.4635-.9258-.433-2.0272-.0309-2.4591.8959"/></g></g><g mask="url(#d)"><g mask="url(#e)"><path d="m66.591 10.618c-.1381-.0641-.2773-.1216-.4176-.1812l-13.451 28.892c.1358.0674.2695.1381.4076.2032.1381.0641.2773.1216.4176.1823l13.451-28.892c-.1358-.0685-.2684-.1381-.4076-.2032" fill="#231f1f"/></g></g></g></svg>