<?xml version="1.0" encoding="UTF-8"?>
<svg fill="none" viewBox="0 0 98 32" xmlns="http://www.w3.org/2000/svg">
<path d="m96.106 12.597c0.4573-3.0109-1.1107-6.1527-4.0507-7.5273-2.94-1.3745-6.272-0.58909-8.2973 1.7018-4.0507 0.58909-7.7094 3.1418-9.5387 7.1346-2.94 6.2836-0.196 13.746 6.0107 16.626 6.272 2.9454 13.655 0.1963 16.595-6.0873 1.8294-3.9273 1.4374-8.3782-0.7186-11.847z" fill="#231F1F"/>
<path d="m89.115 2.4509c0.5227 0.26182 1.176 0 1.4374-0.58909 0.2613-0.5891 0.0653-1.2436-0.4574-1.5055-0.5226-0.26182-1.176 0-1.4373 0.58909-0.3267 0.58909-0.0653 1.2436 0.4573 1.5055z" fill="#231F1F"/>
<path d="m95.975 5.658c0.5227 0.26182 1.1761 0 1.4374-0.58909s0.0653-1.2436-0.4574-1.5055c-0.5226-0.26182-1.176 0-1.4373 0.58909-0.3267 0.58909-0.0653 1.2436 0.4573 1.5055z" fill="#231F1F"/>
<path d="m96.106 12.597c0.4573-3.0109-1.1107-6.1527-4.0507-7.5273-2.94-1.3745-6.272-0.58909-8.2973 1.7018-4.0507 0.58909-7.7094 3.1418-9.5387 7.1346-2.94 6.2836-0.196 13.746 6.0107 16.626 6.272 2.9454 13.655 0.1963 16.595-6.0873 1.8294-3.9273 1.4374-8.3782-0.7186-11.847z" fill="#fff"/>
<path d="m95.517 14.56c-1.6333 3.6-5.88 5.1054-9.4734 3.4691-3.5933-1.7018-5.0959-5.9564-3.4626-9.4909 1.6333-3.6 5.88-5.1055 9.4733-3.4691 3.5933 1.7018 5.1614 5.9563 3.4627 9.4909z" fill="#231F1F"/>
<path d="m96.824 24.443c-2.94 6.2836-10.323 8.9672-16.595 6.0872-6.272-2.9454-8.9506-10.342-6.0106-16.625 2.94-6.2836 10.323-8.9673 16.595-6.0873 6.2067 2.9455 8.9507 10.407 6.0107 16.625z" fill="#5D3EBC"/>
<mask id="j" x="73" y="6" width="26" height="26" style="mask-type:luminance" maskUnits="userSpaceOnUse">
<path d="m74.219 13.905c-2.94 6.2836-0.196 13.746 6.0107 16.626 6.272 2.9454 13.655 0.1963 16.595-6.0873 2.94-6.2837 0.196-13.746-6.0106-16.625-1.6987-0.78545-3.528-1.1782-5.292-1.1782-4.704 0-9.212 2.6836-11.303 7.2654z" fill="#fff"/>
</mask>
<g mask="url(#j)">
<mask id="i" x="37" y="-1" width="63" height="34" style="mask-type:luminance" maskUnits="userSpaceOnUse">
<path d="m99.111-0.82227h-61.413v33.644h61.413v-33.644z" fill="#fff"/>
</mask>
<g mask="url(#i)">
<path d="m92.512 11.679c-0.7187 1.5709-2.6133 2.2909-4.1813 1.5055-1.568-0.72-2.2867-2.6182-1.5027-4.1891 0.7187-1.5709 2.6133-2.2909 4.1813-1.5055 1.568 0.72 2.2214 2.6182 1.5027 4.1891z" fill="#FFD10D"/>
</g>
<mask id="h" x="37" y="-1" width="63" height="34" style="mask-type:luminance" maskUnits="userSpaceOnUse">
<path d="m99.111-0.82227h-61.413v33.644h61.413v-33.644z" fill="#fff"/>
</mask>
<g mask="url(#h)">
<path d="m83.104 19.011c-0.588 1.1782-1.96 1.7018-3.136 1.1782-1.176-0.5891-1.6987-1.9636-1.176-3.1418 0.588-1.1782 1.96-1.7018 3.136-1.1782s1.6987 1.9636 1.176 3.1418z" fill="#FFD10D"/>
</g>
<mask id="g" x="37" y="-1" width="63" height="34" style="mask-type:luminance" maskUnits="userSpaceOnUse">
<path d="m99.111-0.82227h-61.413v33.644h61.413v-33.644z" fill="#fff"/>
</mask>
<g mask="url(#g)">
<path d="m81.471 11.745c-0.3267 0.72-1.2414 1.0473-1.96 0.72-0.7187-0.3273-1.0454-1.2436-0.7187-1.9636 0.3267-0.72004 1.2413-1.0473 1.96-0.72004 0.7187 0.32724 1.0453 1.2436 0.7187 1.9636z" fill="#FFD10D"/>
</g>
<mask id="f" x="37" y="-1" width="63" height="34" style="mask-type:luminance" maskUnits="userSpaceOnUse">
<path d="m99.111-0.82227h-61.413v33.644h61.413v-33.644z" fill="#fff"/>
</mask>
<g mask="url(#f)">
<path d="m78.531 23.985c-0.3266 0.72-1.2413 1.0473-1.96 0.72-0.7186-0.3272-1.0453-1.2436-0.7186-1.9636 0.3266-0.72 1.2413-1.0473 1.96-0.72 0.7186 0.3273 1.0453 1.1782 0.7186 1.9636z" fill="#FFD10D"/>
</g>
<mask id="e" x="37" y="-1" width="63" height="34" style="mask-type:luminance" maskUnits="userSpaceOnUse">
<path d="m99.111-0.82227h-61.413v33.644h61.413v-33.644z" fill="#fff"/>
</mask>
<g mask="url(#e)">
<path d="m87.22 20.974c-0.588 1.1782-0.0654 2.6182 1.176 3.1419 1.176 0.589 2.6133 0.0654 3.136-1.1782 0.588-1.1782 0.0653-2.6182-1.176-3.1418-1.176-0.5237-2.6134 0-3.136 1.1781z" fill="#FFD10D"/>
</g>
<mask id="d" x="37" y="-1" width="63" height="34" style="mask-type:luminance" maskUnits="userSpaceOnUse">
<path d="m99.111-0.82227h-61.413v33.644h61.413v-33.644z" fill="#fff"/>
</mask>
<g mask="url(#d)">
<path d="m93.819 17.505c-0.3266 0.72 0 1.6363 0.7187 1.9636 0.7186 0.3273 1.6333 0 1.96-0.72 0.3266-0.72 0-1.6364-0.7187-1.9636-0.7186-0.3273-1.6333 0-1.96 0.72z" fill="#FFD10D"/>
</g>
<mask id="c" x="37" y="-1" width="63" height="34" style="mask-type:luminance" maskUnits="userSpaceOnUse">
<path d="m99.111-0.82227h-61.413v33.644h61.413v-33.644z" fill="#fff"/>
</mask>
<g mask="url(#c)">
<path d="m86.371 27.651c-0.3266 0.72 0 1.6363 0.7187 1.9636s1.6333 0 1.96-0.72 0-1.6364-0.7187-1.9636c-0.7186-0.3273-1.6333 0-1.96 0.72z" fill="#FFD10D"/>
</g>
</g>
<mask id="b" x="73" y="6" width="26" height="26" style="mask-type:luminance" maskUnits="userSpaceOnUse">
<path d="m74.219 13.905c-2.94 6.2836-0.196 13.746 6.0107 16.626 6.272 2.9454 13.655 0.1963 16.595-6.0873 2.94-6.2837 0.196-13.746-6.0106-16.625-1.6987-0.78545-3.528-1.1782-5.292-1.1782-4.704 0-9.212 2.6836-11.303 7.2654z" fill="#fff"/>
</mask>
<g mask="url(#b)">
<mask id="a" x="37" y="-1" width="63" height="34" style="mask-type:luminance" maskUnits="userSpaceOnUse">
<path d="m99.111-0.82227h-61.413v33.644h61.413v-33.644z" fill="#fff"/>
</mask>
<g mask="url(#a)">
<path d="m90.879 7.6866c-0.1306-0.06545-0.196-0.06545-0.3266-0.13091l-10.715 23.105c0.1307 0.0655 0.196 0.1309 0.3267 0.1309 0.1306 0.0655 0.196 0.0655 0.3266 0.1309l10.715-23.105c-0.1307 0-0.196-0.06545-0.3267-0.13091z" fill="#231F1F"/>
</g>
</g>
<path d="m6.5987 27.52c-4.4427 0-6.5987-2.4218-6.5987-6.2182v-11.52h1.1107c2.4827 0 3.2667 0.71997 3.2667 2.8146v3.0109c0.71867-0.9164 1.5027-1.7673 3.2667-1.7673 3.528 0 6.076 2.4218 6.076 6.6764-0.0653 4.32-3.0053 7.0036-7.1213 7.0036zm0.196-10.145c-1.4373 0-2.4173 1.2436-2.4173 3.4036 0 2.5527 0.98 3.4036 2.4827 3.4036 1.4373 0 2.352-1.1782 2.352-3.1418 0-2.6836-0.84933-3.6654-2.4173-3.6654z" fill="#5D3EBC"/>
<path d="m19.273 27.324c-2.352 0-4.4426-1.44-4.4426-4.4509v-13.091h1.568c1.96 0 2.8746 0.91637 2.8746 3.0764v9.36c0 1.1782 0.6534 1.5054 1.8947 1.5054h1.0453v1.571c0 1.5709-1.5026 2.029-2.94 2.029z" fill="#5D3EBC"/>
<path d="m29.661 13.841c3.528 0 6.664 2.6837 6.664 6.6764 0 4.2545-2.548 6.9382-6.9907 6.9382-3.6586 0-6.664-2.7491-6.664-6.5455-0.0653-4.1891 2.94-7.0691 6.9907-7.0691zm-0.2613 3.5346c-1.2414 0-2.352 1.3091-2.352 3.0763 0 2.4873 0.98 3.6 2.548 3.6 1.4373 0 2.352-1.3091 2.352-3.0763 0-2.3564-1.0454-3.6-2.548-3.6z" fill="#5D3EBC"/>
<path d="m50.176 24.444v1.309c0 3.1419-2.6786 5.6946-6.7946 5.6946-3.6587 0-5.096-1.6364-5.096-3.2727v-1.3746h0.1306c0.784 0.72 2.2867 1.1782 4.3774 1.1782 1.8946 0 2.8746-1.0473 2.8746-2.4218 0-0.1964-0.0653-0.5237-0.0653-0.7855v-0.4582c-0.2613 0.851-1.3067 1.6364-2.6133 1.6364-3.2667 0-5.88-1.6364-5.88-5.6945 0-3.5346 2.8093-6.4146 7.1866-6.4146 3.92 0 5.7494 2.2909 5.7494 5.8255v3.4036c0.0653 0.3273 0.0653 0.7855 0.1306 1.3746zm-8.5586-4.6473c0 1.8982 0.9146 2.6182 2.2213 2.6182 1.2413 0 1.8947-0.9819 1.8947-2.4219 0-1.8981-0.7187-2.6181-2.0254-2.6181-1.3066 0.0654-2.0906 0.9163-2.0906 2.4218z" fill="#5D3EBC"/>
<path d="m57.951 27.127c-1.3066 0-2.352-0.9164-2.352-2.4873v-9.2945l-1.5026 0.4581c-0.3267 0.0655-0.6534 0.131-0.98 0.131-0.9147 0-1.6987-0.4582-1.8294-1.2437l-0.2613-1.5709 4.2467-1.7673c0.7186-0.3272 1.568-0.5236 2.6133-0.5236s2.156 0.7855 2.156 2.0291v14.204h-2.0907v0.0655z" fill="#5D3EBC"/>
<path d="m68.077 27.127c-1.3066 0-2.352-0.9164-2.352-2.4873v-9.2945l-1.5026 0.4581c-0.3267 0.0655-0.6534 0.131-0.98 0.131-0.9147 0-1.6987-0.4582-1.8294-1.2437l-0.2613-1.5709 4.2467-1.7673c0.7186-0.3272 1.568-0.5236 2.6133-0.5236s2.156 0.7855 2.156 2.0291v14.204h-2.0907v0.0655z" fill="#5D3EBC"/>
</svg>
